<svg width="84" height="26" viewBox="0 0 84 26" fill="none" xmlns="http://www.w3.org/2000/svg">
<g clip-path="url(#clip0_9789_8777)">
<mask id="mask0_9789_8777" style="mask-type:luminance" maskUnits="userSpaceOnUse" x="0" y="0" width="96" height="26">
<path d="M96 0H0V26H96V0Z" fill="white"/>
</mask>
<g mask="url(#mask0_9789_8777)">
<path fill-rule="evenodd" clip-rule="evenodd" d="M12.9749 11.4051L4.79202 3.43176H2.71764H0V26.0017H4.76709V14.6689V10.438L12.6956 18.5573L19.2778 12.2663V8.8715V8.15629V5.48678L12.9749 11.4051Z" fill="#3D374C"/>
<path fill-rule="evenodd" clip-rule="evenodd" d="M36.8833 17.2474H26.4516V12.2257H36.8833V8.48838H25.2149V26.0014H20.5127V8.15599C20.5127 6.85141 20.8418 5.6174 21.7344 4.69063C22.602 3.78904 23.709 3.42639 24.9058 3.42639H35.4223L41.6205 10.6794V25.9963H36.8833V17.2373V17.2474Z" fill="#8F75DD"/>
<path fill-rule="evenodd" clip-rule="evenodd" d="M78.8694 20.98V17.2427H68.2984C67.1215 17.2427 66.0146 16.9153 65.1319 16.0591C64.1995 15.1524 63.9053 13.858 63.9053 12.5534V8.15629C63.9053 6.85677 64.2145 5.60263 65.112 4.67586C65.9846 3.77427 67.1066 3.43176 68.3034 3.43176H82.6299V8.48875H68.6125V12.226H79.1842C80.4006 12.226 81.5375 12.5786 82.4248 13.5054C83.3026 14.4271 83.6468 15.6208 83.6468 16.9153V21.3124C83.6468 22.5968 83.3629 23.8762 82.4749 24.7929C81.5876 25.7096 80.3903 26.0017 79.189 26.0017H64.2095V20.98H78.8797H78.8694Z" fill="#3D374C"/>
<path fill-rule="evenodd" clip-rule="evenodd" d="M57.9639 17.9932V3.43176H62.6662V23.7654L57.9639 17.9932Z" fill="#8F75DD"/>
<path fill-rule="evenodd" clip-rule="evenodd" d="M53.9655 15.097L62.8565 26.0017H56.3889L50.5498 19.1718L53.9655 15.097ZM50.7991 9.55146L56.3291 3.43176H56.733V10.0854L54.0154 13.1276L50.7991 9.55146Z" fill="#3D374C"/>
<path fill-rule="evenodd" clip-rule="evenodd" d="M46.4533 14.3818L37.0986 3.43176H43.581L53.1501 14.0796L43.1622 26.0017H42.858V18.7487L46.4533 14.3818Z" fill="#3D374C"/>
</g>
</g>
<defs>
<clipPath id="clip0_9789_8777">
<rect width="84" height="26" fill="white"/>
</clipPath>
</defs>
</svg>
